<?xml version="1.0" encoding="utf-8"?>
<!-- Generator: Adobe Illustrator 24.0.1, SVG Export Plug-In . SVG Version: 6.00 Build 0)  -->
<svg version="1.1" xmlns="http://www.w3.org/2000/svg" xmlns:xlink="http://www.w3.org/1999/xlink" x="0px" y="0px"
	 viewBox="0 0 360 360" style="enable-background:new 0 0 360 360;" xml:space="preserve">
<style type="text/css">
	.st0{display:none;}
	.st1{display:inline;fill:#666666;}
	.st2{display:inline;}
	.st3{fill:#FFFFFF;}
	.st4{fill:#A70E08;}
	.st5{fill:#122277;}
	.st6{display:inline;fill:#A70E08;}
	.st7{display:inline;fill:none;stroke:#A70E08;stroke-width:36;stroke-miterlimit:10;}
	.st8{display:inline;fill:#122277;}
	.st9{display:inline;fill:#1F5013;}
	.st10{display:inline;fill:#C05712;}
	.st11{display:inline;fill:#868080;}
	.st12{fill:none;stroke:#A70E08;stroke-width:36;stroke-miterlimit:10;}
	.st13{fill:#868080;}
	.st14{fill:#1F5013;}
	.st15{fill:none;stroke:#FFFFFF;stroke-width:4;stroke-miterlimit:10;}
	.st16{fill:#C05712;}
</style>
<g id="_x2D_Moderate_background" class="st0">
</g>
<g id="_x2D__x28_Nonstandard_x2C__broken_x29_" class="st0">
	<g id="Gaming_device" class="st2">
	</g>
</g>
<g id="_x2D_Bad_radii" class="st0">
	<g id="Refrigeration" class="st2">
	</g>
	<g id="Airlock">
	</g>
	<g id="Pressurised_area">
	</g>
	<g id="Pressurised_with_Artificial_Gravity">
	</g>
	<g id="Artificial_gravity_absent">
	</g>
	<g id="Cryogenic_vault">
	</g>
	<g id="Bulkhead_door__x28_partial_x29_" class="st2">
		<g id="Central_divider">
		</g>
	</g>
</g>
<g id="_x2D_Color_chips" class="st0">
</g>
<g id="_x2D_Extension" class="st0">
	<g id="Gaming_x2F_recreation" class="st2">
	</g>
	<g id="Cognitohazard">
		<g id="Circles" class="st2">
		</g>
	</g>
</g>
<g id="Refrigeration_1_">
</g>
<g id="Airlock_1_">
</g>
<g id="Pressurised_area_1_">
</g>
<g id="Pressurised_with_artificial_gravity">
</g>
<g id="Artificial_gravity_absent_1_">
</g>
<g id="Cryogenic_vault_1_">
</g>
<g id="Bulkhead_door">
</g>
<g id="Non-pressurised_area_beyond">
</g>
<g id="Pressure_suit_locker">
</g>
<g id="Laser">
</g>
<g id="Astronic_system__x28_electronics_x29_">
</g>
<g id="Hazard_x2F_warning">
</g>
<g id="Area_shielded_from_radiation">
</g>
<g id="Coffee">
</g>
<g id="Galley">
</g>
<g id="No_pressure_x2F_gravity_suit_required">
</g>
<g id="Radiation_hazard">
</g>
<g id="High_radioactivity">
</g>
<g id="Direction__x28_right_x29_">
</g>
<g id="Direction__x28_down_x29_">
</g>
<g id="Direction__x28_up_x29_">
</g>
<g id="Direction__x28_left_x29_">
</g>
<g id="Life_support_system">
</g>
<g id="Bridge">
</g>
<g id="Autodoc">
</g>
<g id="Computer_terminal">
	<g>
		<g id="White_base_72_">
			<path class="st3" d="M0,36C0,16.2,16.2,0,36,0h288c19.8,0,36,16.2,36,36v288c0,19.8-16.2,36-36,36H36c-19.8,0-36-16.2-36-36V36z"
				/>
		</g>
		<path id="Border_22_" class="st4" d="M324.3,18H35.7C25.93,18,18,25.93,18,35.7V324.3c0,9.78,7.93,17.7,17.7,17.7H324.3
			c9.78,0,17.7-7.93,17.7-17.7V35.7C342,25.93,334.07,18,324.3,18z M306,292.23c0,7.61-6.17,13.77-13.77,13.77H67.77
			C60.17,306,54,299.83,54,292.23V67.77C54,60.17,60.17,54,67.77,54h224.46c7.61,0,13.77,6.17,13.77,13.77V292.23z"/>
		<path class="st13" d="M269.93,288H90.07C80.09,288,72,279.91,72,269.93V90.07C72,80.09,80.09,72,90.07,72h179.87
			c9.98,0,18.07,8.09,18.07,18.07v179.87C288,279.91,279.91,288,269.93,288z"/>
		<g id="Screen">
			<path class="st3" d="M252.27,171.8c-48.18,2.58-96.36,2.58-144.55,0c-4.79-0.27-9.67-4.41-10.6-9.22
				c-3.99-21.18-3.99-42.36,0-63.55c0.93-4.81,5.8-8.95,10.6-9.22c48.18-2.58,96.36-2.58,144.55,0c4.79,0.27,9.67,4.41,10.6,9.22
				c3.99,21.18,3.99,42.36,0,63.55C261.94,167.38,257.07,171.53,252.27,171.8z"/>
		</g>
		<g id="Keys">
			<g>
				<path class="st3" d="M166.5,271.95c2.48,0,4.5-2.03,4.5-4.5v-22.5c0-2.47-2.02-4.5-4.5-4.5h-18c-2.48,0-4.5,2.03-4.5,4.5v22.5
					c0,2.47,2.02,4.5,4.5,4.5H166.5z"/>
			</g>
			<path class="st3" d="M238.1,222.45H259c2.59,0,4.7-2.1,4.7-4.7v-16.68c0-5.57-3.77-10.13-8.37-10.13H238.4
				c-2.43,0-4.4,1.97-4.4,4.4v23C234,220.61,235.83,222.45,238.1,222.45z"/>
			<g>
				<path class="st3" d="M216,244.95c0-2.47-2.02-4.5-4.5-4.5h-18c-2.48,0-4.5,2.03-4.5,4.5v22.5c0,2.47,2.02,4.5,4.5,4.5h18
					c2.48,0,4.5-2.03,4.5-4.5V244.95z"/>
			</g>
			<g>
				<path class="st3" d="M171,195.45c0-2.47-2.02-4.5-4.5-4.5h-18c-2.48,0-4.5,2.03-4.5,4.5v22.5c0,2.48,2.02,4.5,4.5,4.5h18
					c2.48,0,4.5-2.02,4.5-4.5V195.45z"/>
			</g>
			<path class="st3" d="M234,244.72v22.91c0,2.38,1.93,4.32,4.32,4.32h17.01c4.6,0,8.37-4.56,8.37-10.13v-17.06
				c0-2.38-1.93-4.31-4.31-4.31h-21.11C235.91,240.45,234,242.36,234,244.72z"/>
			<path class="st3" d="M121.66,240.45h-21.02c-2.4,0-4.35,1.95-4.35,4.35v17.03c0,5.57,3.77,10.13,8.37,10.13h17.08
				c2.35,0,4.25-1.9,4.25-4.25v-22.91C126,242.39,124.06,240.45,121.66,240.45z"/>
			<path class="st3" d="M126,218.35V195c0-2.24-1.82-4.06-4.06-4.06h-17.27c-4.6,0-8.37,4.56-8.37,10.13v17.4
				c0,2.2,1.78,3.98,3.98,3.98h21.62C124.17,222.45,126,220.61,126,218.35z"/>
			<g>
				<path class="st3" d="M193.5,190.95c-2.48,0-4.5,2.03-4.5,4.5v22.5c0,2.48,2.02,4.5,4.5,4.5h18c2.48,0,4.5-2.02,4.5-4.5v-22.5
					c0-2.47-2.02-4.5-4.5-4.5H193.5z"/>
			</g>
		</g>
	</g>
</g>
<g id="Maintenance">
</g>
<g id="Ladderway">
</g>
<g id="Intercom">
</g>
<g id="Storage__x28_organic_x29_">
</g>
<g id="Storage__x28_non-organic_x29_">
</g>
<g id="Exhaust">
</g>
<g id="Photonic_system__x28_fibre_optics_x29_">
</g>
<g id="Artificial_gravity_area_x2C__non-pressurised_x2C__suit_required">
</g>
</svg>
